Coordinates
version=1
nRows=49
nColumns=12
inDegrees=yes

Units are S.I. units (second, meters, Newtons, ...)
Angles are in degrees

endheader
time	SC_y	SC_z	SC_x	AC_y	AC_z	AC_x	GH_y	GH_z	GH_yy	EL_x	PS_y
       0.0              -43.84          1.752          77.96          59.67         -13.38         -15.45          78.18          23.51          78.81           76.3          133.9
   0.01802              -43.83          1.751          77.95          59.67         -13.38         -15.45          78.17          23.51           78.8           76.3          133.9
   0.03605              -43.83          1.751          77.94          59.67         -13.38         -15.44          78.16          23.51          78.79          76.31          133.9
   0.05407              -43.83           1.75          77.93          59.67         -13.38         -15.44          78.15           23.5          78.77          76.32          133.9
   0.07209              -43.82          1.749          77.92          59.67         -13.37         -15.44          78.15           23.5          78.76          76.32          133.9
   0.09012              -43.82          1.749          77.91          59.67         -13.37         -15.43          78.14          23.49          78.74          76.33          133.9
    0.1081              -43.82          1.748          77.89          59.67         -13.37         -15.43          78.13          23.49          78.73          76.34          133.9
    0.1262              -43.81          1.747          77.88          59.68         -13.37         -15.42          78.12          23.48          78.71          76.34          133.9
    0.1442              -43.81          1.746          77.86          59.68         -13.37         -15.42           78.1          23.47          78.69          76.35          133.9
    0.1622               -43.8          1.745          77.85          59.68         -13.37         -15.41          78.09          23.47          78.67          76.36          133.9
    0.1802               -43.8          1.744          77.83          59.68         -13.36          -15.4          78.08          23.46          78.65          76.37          133.9
    0.1983              -43.79          1.743          77.81          59.68         -13.36          -15.4          78.07          23.45          78.63          76.38          133.9
    0.2163              -43.78          1.742          77.79          59.68         -13.36         -15.39          78.05          23.44           78.6          76.39          133.9
    0.2343              -43.78           1.74          77.77          59.68         -13.36         -15.38          78.03          23.43          78.58           76.4          133.9
    0.2523              -43.77          1.739          77.74          59.68         -13.35         -15.37          78.02          23.42          78.55          76.41          133.9
    0.2703              -43.76          1.738          77.72          59.69         -13.35         -15.36           78.0          23.41          78.51          76.43          133.9
    0.2884              -43.75          1.736          77.69          59.69         -13.35         -15.35          77.98           23.4          78.48          76.44          133.9
    0.3064              -43.75          1.734          77.66          59.69         -13.34         -15.34          77.95          23.39          78.44          76.46          133.9
    0.3244              -43.74          1.732          77.63          59.69         -13.34         -15.33          77.93          23.38           78.4          76.48          133.9
    0.3424              -43.72           1.73          77.59          59.69         -13.34         -15.32           77.9          23.36          78.36           76.5          133.9
    0.3605              -43.71          1.728          77.55           59.7         -13.33          -15.3          77.87          23.34          78.31          76.52          133.9
    0.3785               -43.7          1.725           77.5           59.7         -13.33         -15.29          77.84          23.33          78.25          76.54          134.0
    0.3965              -43.68          1.722          77.45           59.7         -13.32         -15.27           77.8          23.31          78.19          76.57          134.0
    0.4145              -43.67          1.719           77.4           59.7         -13.31         -15.25          77.76          23.28          78.13           76.6          134.0
    0.4326              -43.65          1.715          77.34          59.71         -13.31         -15.23          77.72          23.26          78.05          76.63          134.0
    0.4506              -43.63          1.711          77.27          59.71          -13.3         -15.21          77.67          23.23          77.97          76.67          134.0
    0.4686              -43.61          1.707           77.2          59.72         -13.29         -15.18          77.62           23.2          77.88          76.71          134.0
    0.4866              -43.58          1.702          77.11          59.72         -13.28         -15.15          77.55          23.16          77.78          76.75          134.0
    0.5046              -43.55          1.696          77.02          59.73         -13.27         -15.12          77.48          23.13          77.66           76.8          134.1
    0.5227              -43.52           1.69          76.91          59.74         -13.26         -15.08           77.4          23.08          77.52          76.86          134.1
    0.5407              -43.48          1.682          76.78          59.74         -13.24         -15.03          77.31          23.03          77.37          76.93          134.1
    0.5587              -43.44          1.674          76.64          59.75         -13.22         -14.98          77.21          22.97           77.2           77.0          134.2
    0.5767              -43.39          1.664          76.48          59.76         -13.21         -14.92          77.09           22.9           77.0          77.09          134.2
    0.5948              -43.34          1.653          76.29          59.77         -13.18         -14.86          76.94          22.82          76.76          77.19          134.2
    0.6128              -43.27           1.64          76.06          59.79         -13.16         -14.78          76.78          22.73          76.49          77.31          134.3
    0.6308              -43.19          1.624           75.8           59.8         -13.13         -14.68          76.59          22.62          76.17          77.45          134.4
    0.6488               -43.1          1.606          75.49          59.82         -13.09         -14.57          76.36           22.5          75.78          77.62          134.4
    0.6669              -42.99          1.584          75.11          59.85         -13.05         -14.44          76.08          22.34          75.33          77.82          134.5
    0.6849              -42.85          1.557          74.66          59.87         -12.99         -14.28          75.74          22.15          74.77          78.07          134.6
    0.7029              -42.68          1.524           74.1          59.91         -12.93         -14.08          75.34          21.93          74.09          78.36          134.7
    0.7209              -42.48          1.484          73.42          59.95         -12.85         -13.84          74.83          21.64          73.25          78.73          134.9
     0.739              -42.23          1.433          72.56           60.0         -12.75         -13.53           74.2          21.29          72.21          79.19          135.1
     0.757               -41.9           1.37          71.49          60.07         -12.62         -13.15          73.41          20.85          70.89          79.76          135.3
     0.775               -41.5          1.289          70.12          60.16         -12.46         -12.67           72.4          20.29          69.22          80.49          135.7
     0.793              -40.97          1.185          68.37          60.26         -12.25         -12.05          71.12          19.57          67.08          81.43          136.1
     0.811               -40.3          1.053          66.13           60.4         -11.99         -11.25          69.46          18.64          64.33          82.63          136.6
    0.8291              -39.45         0.8832          63.26          60.58         -11.65         -10.23          67.35          17.46          60.82          84.17          137.3
    0.8471              -38.37         0.6701          59.65          60.81         -11.23         -8.951          64.69          15.98          56.41           86.1          138.1
    0.8651              -37.06         0.4104          55.25          61.08         -10.71         -7.391          61.46          14.17          51.03          88.45          139.1
